<?xml version="1.0" encoding="UTF-8"?>
<!DOCTYPE svg PUBLIC "-//W3C//DTD SVG 1.1//EN" "http://www.w3.org/Graphics/SVG/1.1/DTD/svg11.dtd">
<!-- Creator: CorelDRAW 2018 (64 Bit Versão de avaliação) -->
<svg xmlns="http://www.w3.org/2000/svg" xml:space="preserve" width="84.6666mm" height="84.6666mm" version="1.1" style="shape-rendering:geometricPrecision; text-rendering:geometricPrecision; image-rendering:optimizeQuality; fill-rule:evenodd; clip-rule:evenodd"
viewBox="0 0 8466.66 8466.66"
 xmlns:xlink="http://www.w3.org/1999/xlink">
 <defs>
  <style type="text/css">
   <![CDATA[
    .fil0 {fill:#373435;fill-rule:nonzero}
   ]]>
  </style>
 </defs>
 <g id="Camada_x0020_1">
  <metadata id="CorelCorpID_0Corel-Layer"/>
  <path class="fil0" d="M6959.53 4599.21c7.43,-56.3 13.2,-116.04 17.19,-179.09 3.69,-57.87 5.56,-120.16 5.56,-186.77 0,-185.06 -17.98,-365.2 -52.24,-538.74 -35.36,-179.16 -87.69,-351.04 -155.09,-513.8 -68.88,-166.33 -154.11,-324.82 -253.66,-473.47 -99.79,-148.95 -215.18,-288.95 -344.1,-417.86 -128.91,-128.92 -268.91,-244.33 -417.86,-344.09 -148.63,-99.57 -307.13,-184.78 -473.47,-253.67 -162.74,-67.4 -334.62,-119.73 -513.77,-155.09 -173.53,-34.26 -353.68,-52.23 -538.73,-52.23 -185.05,0 -365.21,17.97 -538.75,52.23 -179.15,35.36 -351.02,87.68 -513.78,155.09 -166.35,68.89 -324.86,154.1 -473.49,253.67 -148.98,99.79 -288.96,215.19 -417.87,344.09 -128.92,128.91 -244.31,268.91 -344.1,417.86 -99.55,148.65 -184.78,307.14 -253.66,473.47 -67.4,162.76 -119.73,334.64 -155.09,513.8 -34.26,173.54 -52.24,353.68 -52.24,538.74 0,185.03 17.98,365.18 52.24,538.7 35.36,179.16 87.69,351.04 155.09,513.8 68.88,166.35 154.1,324.84 253.65,473.45 99.79,148.95 215.2,288.97 344.11,417.88 128.91,128.9 268.89,244.3 417.87,344.09 148.63,99.57 307.14,184.78 473.49,253.67 162.76,67.41 334.63,119.73 513.78,155.09 173.54,34.26 353.7,52.23 538.75,52.23 66.57,0 128.32,-1.79 185.19,-5.32 62.44,-3.87 121.19,-9.41 176.13,-16.52 54,-6.97 112.26,-16.69 174.44,-28.96 60.3,-11.91 118.69,-25.43 175.03,-40.4 58.94,-15.67 115.47,-32.59 169.51,-50.64 57.91,-19.36 112.33,-39.49 163.21,-60.28 48.35,-19.78 99.84,-42.95 154.18,-69.35 51.7,-25.11 100.33,-50.44 145.71,-75.87 31.33,-20.33 64.97,-37.49 100.23,-51.3 33.82,-13.24 70.39,-23.53 109.12,-30.58 37.46,-6.83 75.86,-9.97 114.58,-9.14 38.56,0.83 76.95,5.42 114.51,13.99l708.24 163.15 -180.21 -680.98 0 -4.83c-6.67,-30.28 -10.94,-60.42 -12.69,-90.07 -2.2,-37.13 -0.8,-74.64 4.33,-111.84 5.1,-36.54 13.93,-73.25 26.61,-109.53 12.09,-34.64 27.91,-68.94 47.54,-102.42 27.76,-47.4 56.09,-99.99 84.85,-157.73 27.44,-55.06 52.77,-110.19 75.8,-165.19 22.74,-54.35 44.34,-111.16 64.63,-170.31 19.83,-57.82 37.58,-115.56 53.11,-173.02 17.16,-63.48 31.43,-123.2 42.63,-178.79 11.72,-58.07 21.59,-117.16 29.49,-177.12zm297.22 -161.53c-4.16,65.64 -10.65,131.63 -19.39,197.78 -8.5,64.51 -19.48,129.86 -32.78,195.78 -14.07,69.82 -29.42,135.29 -45.93,196.36 -17.81,65.89 -37.4,129.84 -58.6,191.7 -21.22,61.87 -45.02,124.2 -71.21,186.76 -26.77,63.92 -54.65,124.88 -83.49,182.76 -27.92,56.05 -59.6,114.22 -94.72,174.21 -9.95,16.97 -18.12,34.75 -24.48,53.01 -6.36,18.17 -10.83,36.87 -13.45,55.71 -2.58,18.68 -3.26,37.79 -2.13,56.92 1.21,20.44 4.2,39.95 8.86,58.16 95.17,371.07 196.08,741.56 294.12,1112.02l-1160.4 -267.51c-19.83,-4.62 -39.27,-7.02 -57.95,-7.41 -20.13,-0.43 -40.16,1.2 -59.68,4.77 -18.44,3.35 -37.4,8.86 -56.41,16.3 -17.96,7.03 -35.05,15.74 -50.87,25.91l-7.13 3.85c-58.44,32.99 -114.57,62.57 -168.17,88.62 -53.02,25.75 -109.93,51.09 -170.64,75.93 -60.41,24.68 -120.37,47.03 -179.69,66.86 -62,20.73 -124.44,39.49 -187.07,56.13 -65.43,17.39 -129.69,32.38 -192.6,44.81 -59.81,11.81 -124.2,22.24 -193.13,31.14 -65.23,8.45 -130.23,14.72 -194.78,18.72 -68.79,4.27 -136.08,6.44 -201.67,6.44 -202.6,0 -400.77,-19.86 -592.57,-57.73 -195.77,-38.64 -385.3,-96.52 -566.49,-171.57 -184.01,-76.21 -359.05,-170.26 -522.9,-280.02 -166.71,-111.67 -321.03,-238.48 -460.7,-378.14 -139.68,-139.69 -266.49,-294.01 -378.16,-460.71 -109.73,-163.81 -203.8,-338.86 -280,-522.87 -75.04,-181.19 -132.94,-370.73 -171.58,-566.5 -37.86,-191.77 -57.73,-389.94 -57.73,-592.52 0,-202.61 19.87,-400.76 57.73,-592.56 38.64,-195.77 96.54,-385.31 171.58,-566.5 76.2,-184 170.29,-359.04 280.01,-522.89 111.67,-166.7 238.47,-321.02 378.15,-460.69 139.67,-139.66 293.99,-266.47 460.7,-378.14 163.85,-109.76 338.89,-203.81 522.9,-280.02 181.19,-75.05 370.72,-132.93 566.49,-171.57 191.8,-37.87 389.97,-57.73 592.57,-57.73 202.6,0 400.76,19.86 592.55,57.73 195.76,38.64 385.3,96.53 566.48,171.57 184.01,76.21 359.05,170.26 522.88,280.02 166.7,111.65 321.02,238.46 460.69,378.14 139.68,139.67 266.48,293.99 378.15,460.69 109.72,163.85 203.81,338.89 280.01,522.89 75.04,181.19 132.94,370.73 171.58,566.5 37.86,191.8 57.73,389.95 57.73,592.56 0,66.64 -2.25,134.83 -6.68,204.33z"/>
  <path class="fil0" d="M5390.79 4901.62l-488.08 0 -196.09 -334.62 -2.13 334.62 -400.69 0 0 -1219.14 686.29 0c109.41,0 203.19,42.98 281.34,128.95 78.15,85.97 117.23,190.05 117.23,312.24 0,85.25 -20.26,163.77 -60.75,235.52 -40.49,71.75 -94.84,125.39 -163.05,160.91l225.93 381.52zm-1659.25 495.54l-300.78 0 0 901.11 -406.04 0 0 -901.11 -349.59 0 0 -340.9c488.25,0 973.89,-1.64 1460.87,-1.64l0 778.77c0,150.49 288.27,150.51 288.27,0l0 -778.77 404.45 0 0 815.36c0,119.03 -53.77,220.15 -161.34,303.34 -107.57,83.17 -236.65,124.76 -387.24,124.76 -152.03,0 -281.46,-41.59 -388.32,-124.76 -106.84,-83.19 -160.28,-184.31 -160.28,-303.34l0 -472.82zm2093.32 464.2c0,149.16 -59.52,263.19 -178.56,342.07 -98.96,64.54 -218,96.82 -357.12,96.82 -146.29,0 -287.56,-30.14 -423.81,-90.37l77.45 -322.69c41.02,53.32 231.61,86.04 299.03,86.04 87.48,0 131.23,-24.37 131.23,-73.13 0,-34.43 -43.75,-60.96 -131.23,-79.6 -196.6,-42.15 -376.48,-85.5 -376.48,-329.15 0,-287.76 263.76,-451.78 529.23,-451.78 189.31,0 314.09,22.22 374.33,66.69l-53.78 365.72c-136.26,-73.15 -240.95,-109.72 -314.1,-109.72 -124.83,0 -128.3,102.69 43.03,144.14 202.95,48.9 380.78,106.77 380.78,354.96zm-3096.18 -2320.3l439.14 -4.15 0 -1236.71 -441.86 0 2.72 1240.86zm215.46 139.89c137.41,0 248.79,108.7 248.79,242.8 0,134.11 -111.38,242.81 -248.79,242.81 -137.41,0 -248.78,-108.7 -248.78,-242.81 0,-134.1 111.37,-242.8 248.78,-242.8zm1625.02 -156.74l-400.7 0 -447.59 -579.72 0 579.72 -400.69 0 0 -1219.14 400.69 0 447.59 579.74 0 -579.74 756.61 0 257.91 641.55 260.01 -641.55 443.33 0 -490.21 1219.14 -424.14 0 -402.81 -1001.78 0 1001.78zm-371.93 1377.41l-871.72 0 0 -1219.14 871.72 0 0 334.63 -471.03 0 0 108.7 471.03 0 0 336.75 -471.03 0 0 102.31 471.03 0 0 336.75zm690.56 -882.38l-183.3 0 0 221.65 183.3 0c136.51,0 133.31,-221.65 0,-221.65z"/>
 </g>
</svg>
