<?xml version="1.0" encoding="UTF-8"?>
<!DOCTYPE svg PUBLIC "-//W3C//DTD SVG 1.1//EN" "http://www.w3.org/Graphics/SVG/1.1/DTD/svg11.dtd">
<!-- Creator: CorelDRAW 2018 (64 Bit Versão de avaliação) -->
<svg xmlns="http://www.w3.org/2000/svg" xml:space="preserve" width="25.3998mm" height="25.3998mm" version="1.1" style="shape-rendering:geometricPrecision; text-rendering:geometricPrecision; image-rendering:optimizeQuality; fill-rule:evenodd; clip-rule:evenodd"
viewBox="0 0 2539.98 2539.98"
 xmlns:xlink="http://www.w3.org/1999/xlink">
 <defs>
  <style type="text/css">
   <![CDATA[
    .fil0 {fill:#2466C9;fill-rule:nonzero}
    .fil1 {fill:white;fill-rule:nonzero}
   ]]>
  </style>
 </defs>
 <g id="Camada_x0020_1">
  <metadata id="CorelCorpID_0Corel-Layer"/>
  <g id="_2319745316720">
   <path class="fil0" d="M2143.84 1387.27c2.38,-18.05 4.23,-37.2 5.51,-57.41 1.18,-18.55 1.78,-38.51 1.78,-59.86 0,-59.32 -5.76,-117.06 -16.75,-172.69 -11.33,-57.43 -28.1,-112.52 -49.71,-164.69 -22.08,-53.32 -49.4,-104.12 -81.31,-151.76 -31.98,-47.75 -68.97,-92.62 -110.29,-133.94 -41.32,-41.33 -86.2,-78.32 -133.94,-110.3 -47.64,-31.91 -98.45,-59.23 -151.77,-81.31 -52.16,-21.6 -107.25,-38.38 -164.68,-49.71 -55.62,-10.98 -113.37,-16.74 -172.68,-16.74 -59.32,0 -117.06,5.76 -172.69,16.74 -57.42,11.33 -112.51,28.1 -164.68,49.71 -53.33,22.08 -104.13,49.4 -151.78,81.31 -47.75,31.99 -92.62,68.98 -133.94,110.3 -41.32,41.32 -78.31,86.19 -110.29,133.94 -31.91,47.64 -59.23,98.44 -81.31,151.76 -21.61,52.17 -38.38,107.26 -49.71,164.69 -10.99,55.63 -16.75,113.37 -16.75,172.69 0,59.31 5.76,117.05 16.75,172.67 11.33,57.43 28.1,112.52 49.71,164.69 22.08,53.32 49.39,104.12 81.3,151.76 31.99,47.74 68.98,92.62 110.3,133.94 41.32,41.32 86.19,78.31 133.94,110.3 47.65,31.91 98.45,59.23 151.78,81.31 52.17,21.61 107.26,38.38 164.68,49.71 55.63,10.98 113.37,16.74 172.69,16.74 21.34,0 41.13,-0.57 59.36,-1.7 20.01,-1.24 38.85,-3.02 56.46,-5.3 17.3,-2.23 35.98,-5.35 55.91,-9.28 19.33,-3.82 38.04,-8.15 56.1,-12.95 18.9,-5.02 37.02,-10.45 54.34,-16.23 18.56,-6.21 36,-12.66 52.31,-19.33 15.5,-6.34 32.01,-13.76 49.42,-22.22 16.57,-8.05 32.16,-16.17 46.71,-24.32 10.04,-6.52 20.82,-12.02 32.13,-16.45 10.84,-4.24 22.56,-7.54 34.97,-9.8 12.01,-2.19 24.32,-3.19 36.73,-2.93 12.36,0.27 24.67,1.74 36.7,4.49l227.02 52.29 -57.76 -218.28 0 -1.55c-2.14,-9.7 -3.51,-19.36 -4.07,-28.87 -0.71,-11.9 -0.26,-23.92 1.39,-35.85 1.63,-11.71 4.46,-23.47 8.53,-35.1 3.87,-11.11 8.94,-22.1 15.24,-32.83 8.89,-15.2 17.97,-32.05 27.19,-50.56 8.8,-17.65 16.92,-35.32 24.3,-52.95 7.29,-17.42 14.21,-35.63 20.72,-54.59 6.35,-18.53 12.04,-37.04 17.02,-55.46 5.5,-20.35 10.07,-39.49 13.66,-57.31 3.76,-18.61 6.92,-37.55 9.46,-56.77zm95.27 -51.78c-1.34,21.04 -3.42,42.19 -6.22,63.4 -2.72,20.67 -6.24,41.62 -10.51,62.75 -4.51,22.38 -9.43,43.37 -14.72,62.94 -5.71,21.12 -11.99,41.62 -18.78,61.45 -6.8,19.83 -14.43,39.81 -22.83,59.86 -8.58,20.49 -17.51,40.03 -26.76,58.58 -8.95,17.97 -19.1,36.62 -30.36,55.84 -3.19,5.44 -5.81,11.14 -7.85,17 -2.04,5.82 -3.47,11.81 -4.31,17.85 -0.82,5.99 -1.04,12.12 -0.68,18.25 0.39,6.55 1.35,12.8 2.84,18.64 30.5,118.94 62.85,237.7 94.28,356.44l-371.95 -85.74c-6.36,-1.48 -12.59,-2.25 -18.58,-2.38 -6.45,-0.14 -12.87,0.39 -19.13,1.53 -5.91,1.07 -11.99,2.84 -18.08,5.22 -5.76,2.26 -11.24,5.05 -16.31,8.31l-2.28 1.23c-18.73,10.58 -36.73,20.06 -53.91,28.41 -16.99,8.25 -35.23,16.38 -54.69,24.34 -19.37,7.91 -38.59,15.07 -57.6,21.43 -19.87,6.64 -39.89,12.66 -59.96,17.99 -20.98,5.57 -41.57,10.38 -61.74,14.36 -19.17,3.79 -39.81,7.13 -61.9,9.99 -20.91,2.7 -41.75,4.71 -62.44,6 -22.05,1.36 -43.62,2.06 -64.64,2.06 -64.94,0 -128.46,-6.37 -189.94,-18.5 -62.75,-12.39 -123.5,-30.94 -181.58,-55 -58.98,-24.43 -115.09,-54.57 -167.61,-89.76 -53.44,-35.79 -102.9,-76.44 -147.67,-121.2 -44.77,-44.78 -85.42,-94.24 -121.22,-147.68 -35.17,-52.5 -65.32,-108.61 -89.75,-167.6 -24.05,-58.07 -42.61,-118.83 -54.99,-181.58 -12.14,-61.47 -18.51,-124.99 -18.51,-189.92 0,-64.95 6.37,-128.46 18.51,-189.94 12.38,-62.75 30.94,-123.51 54.99,-181.58 24.43,-58.98 54.59,-115.09 89.76,-167.61 35.79,-53.43 76.44,-102.9 121.21,-147.67 44.77,-44.76 94.23,-85.41 147.67,-121.2 52.52,-35.19 108.63,-65.33 167.61,-89.76 58.08,-24.06 118.83,-42.61 181.58,-55 61.48,-12.13 125,-18.5 189.94,-18.5 64.94,0 128.46,6.37 189.93,18.5 62.75,12.39 123.51,30.95 181.58,55 58.98,24.43 115.09,54.57 167.6,89.76 53.44,35.78 102.9,76.43 147.67,121.2 44.77,44.77 85.42,94.24 121.21,147.67 35.17,52.52 65.33,108.63 89.76,167.61 24.05,58.07 42.61,118.83 54.99,181.58 12.14,61.48 18.51,124.99 18.51,189.94 0,21.36 -0.72,43.21 -2.14,65.49z"/>
   <path class="fil1" d="M1641 1484.2l-156.45 0 -62.85 -107.26 -0.69 107.26 -128.43 0 0 -390.78 219.98 0c35.07,0 65.13,13.78 90.18,41.34 25.05,27.55 37.58,60.91 37.58,100.08 0,27.33 -6.5,52.49 -19.48,75.49 -12.98,23 -30.4,40.19 -52.26,51.58l72.42 122.29zm-531.85 158.84l-96.41 0 0 288.84 -130.15 0 0 -288.84 -112.06 0 0 -109.27c156.5,0 312.17,-0.53 468.26,-0.53l0 249.63c0,48.23 92.4,48.24 92.4,0l0 -249.63 129.64 0 0 261.36c0,38.15 -17.23,70.56 -51.71,97.23 -34.48,26.66 -75.86,39.99 -124.13,39.99 -48.73,0 -90.21,-13.33 -124.47,-39.99 -34.24,-26.67 -51.37,-59.08 -51.37,-97.23l0 -151.56zm670.98 148.79c0,47.81 -19.07,84.36 -57.23,109.65 -31.72,20.69 -69.88,31.03 -114.47,31.03 -46.89,0 -92.17,-9.66 -135.85,-28.96l24.83 -103.44c13.15,17.09 74.24,27.58 95.85,27.58 28.04,0 42.06,-7.81 42.06,-23.44 0,-11.04 -14.02,-19.54 -42.06,-25.51 -63.02,-13.52 -120.68,-27.41 -120.68,-105.51 0,-92.24 84.55,-144.81 169.64,-144.81 60.68,0 100.68,7.12 119.99,21.38l-17.24 117.22c-43.68,-23.45 -77.24,-35.17 -100.68,-35.17 -40.02,0 -41.13,32.92 13.79,46.2 65.05,15.68 122.05,34.23 122.05,113.78zm-992.44 -743.74l140.77 -1.33 0 -396.41 -141.64 0 0.87 397.74zm69.07 44.84c44.04,0 79.74,34.84 79.74,77.83 0,42.99 -35.7,77.83 -79.74,77.83 -44.05,0 -79.75,-34.84 -79.75,-77.83 0,-42.99 35.7,-77.83 79.75,-77.83zm520.88 -50.24l-128.44 0 -143.47 -185.82 0 185.82 -128.44 0 0 -390.78 128.44 0 143.47 185.83 0 -185.83 242.52 0 82.67 205.64 83.34 -205.64 142.1 0 -157.13 390.78 -135.95 0 -129.11 -321.11 0 321.11zm-119.22 441.51l-279.42 0 0 -390.78 279.42 0 0 107.26 -150.98 0 0 34.85 150.98 0 0 107.94 -150.98 0 0 32.79 150.98 0 0 107.94zm221.35 -282.83l-58.76 0 0 71.04 58.76 0c43.75,0 42.73,-71.04 0,-71.04z"/>
  </g>
 </g>
</svg>
